# xmcd
# Track frame offsets:
# 150
# 20093
# 36959
# 53073
# 68806
# 85077
# 97570
# 111249
# 130475
# 147810
# 164281
# 185099
# 198619
# 217685
# 234479
#
# Disc length: 3416 seconds
# Revision: 0
# Processed by: cddbd v1.5.2PL0 Copyright (c) Steve Scherf et al.
# Submitted via: VisiTrax 2.10.3.257 - For more info visit www.synapsa.com
#
DISCID=cd0d560f
DTITLE=Dominic Kirwan - A Little Bit More
DYEAR=2007
DGENRE=Male
TTITLE0=Silver Lady
TTITLE1=A Little Bit More
TTITLE2=Some Girls
TTITLE3=Love Hurts
TTITLE4=You Needed Me
TTITLE5=You Needed Me
TTITLE6=Love Grows Where My Rosemary Goes
TTITLE7=You To Me Are Everything
TTITLE8=Three Times A Lady
TTITLE9=It's A Heartache
TTITLE10=When I need you
TTITLE11=Love really hurts without you
TTITLE12=She Believes (In Me)
TTITLE13=Kissing in the Back Row
TTITLE14=You Won't Find Someone To Love You (As Much As I Do)
EXTD=UPC: 5014675302760   \npre/suf FRC-CD 276  \nLabel Famous Record
EXTD=s   \nPub. Admiral Records
EXTT0=
EXTT1=
EXTT2=
EXTT3=
EXTT4=
EXTT5=
EXTT6=
EXTT7=
EXTT8=
EXTT9=
EXTT10=
EXTT11=
EXTT12=
EXTT13=
EXTT14=
PLAYORDER=
